<svg width="47" height="21" viewBox="0 0 47 21" fill="none" xmlns="http://www.w3.org/2000/svg">
<g clip-path="url(#clip0_5503_35363)">
<path d="M14.0729 14.717C14.7592 13.5988 15.1217 12.312 15.1199 11V10.9998C15.1217 9.6877 14.7592 8.4009 14.0729 7.28269L14.069 7.27658C13.4322 6.23872 12.5399 5.3815 11.4774 4.78682C10.4148 4.19215 9.21754 3.87989 7.99991 3.87988C6.78227 3.87988 5.58498 4.19213 4.52244 4.7868C3.45989 5.38146 2.5676 6.23868 1.93082 7.27653L1.92687 7.28271C1.2422 8.4017 0.879888 9.68803 0.879883 10.9999C0.879878 12.3117 1.24218 13.598 1.92684 14.717L1.93086 14.7233C2.56764 15.7611 3.45993 16.6183 4.52247 17.213C5.58501 17.8076 6.78229 18.1199 7.99991 18.1199C9.21753 18.1199 10.4148 17.8076 11.4773 17.2129C12.5399 16.6183 13.4322 15.7611 14.0689 14.7232L14.0729 14.717ZM8.90998 16.8996C8.7743 17.0305 8.61814 17.1384 8.44768 17.2189C8.30776 17.2854 8.15479 17.3199 7.99988 17.3199C7.84497 17.3199 7.692 17.2854 7.55208 17.2189C7.22768 17.0532 6.94999 16.8088 6.74439 16.5081C6.32449 15.9014 6.01331 15.2262 5.82477 14.5128C6.54907 14.4682 7.27411 14.4455 7.99988 14.4447C8.72535 14.4447 9.45043 14.4674 10.1751 14.5128C10.0708 14.8796 9.94039 15.2385 9.78504 15.5868C9.58046 16.0766 9.28335 16.5223 8.90998 16.8996ZM1.6938 11.3999H4.56564C4.58434 12.2012 4.6712 12.9995 4.82528 13.7861C4.04023 13.8552 3.25719 13.9501 2.47615 14.0708C2.01879 13.2502 1.75144 12.3375 1.6938 11.3999ZM2.47615 7.92896C3.25688 8.04995 4.0402 8.14485 4.8261 8.21367C4.67172 9.00024 4.58467 9.79853 4.5659 10.5999H1.6938C1.75143 9.66225 2.01879 8.74951 2.47615 7.92896ZM7.08978 5.10015C7.22545 4.96923 7.38161 4.86138 7.55208 4.78085C7.692 4.71437 7.84497 4.67987 7.99988 4.67987C8.15479 4.67987 8.30776 4.71437 8.44768 4.78085C8.77208 4.94655 9.04977 5.19092 9.25537 5.49162C9.67526 6.09838 9.98644 6.77354 10.175 7.48692C9.45068 7.53149 8.72564 7.5542 7.99988 7.55504C7.27441 7.55503 6.54933 7.53232 5.82464 7.48691C5.929 7.12012 6.05936 6.76123 6.21473 6.41297C6.4193 5.92318 6.71641 5.47743 7.08978 5.10015ZM14.306 10.5999H11.4341C11.4154 9.79853 11.3286 9.00022 11.1745 8.2136C11.9595 8.14452 12.7426 8.04964 13.5236 7.92896C13.981 8.74951 14.2483 9.66225 14.306 10.5999ZM5.62989 13.724C5.47344 12.9586 5.38508 12.1808 5.36585 11.3999H10.634C10.6149 12.1808 10.5267 12.9586 10.3704 13.724C9.58111 13.6722 8.79093 13.6458 7.99988 13.6447C7.2094 13.6447 6.41941 13.6711 5.62989 13.724ZM10.3699 8.27579C10.5263 9.04118 10.6147 9.81891 10.6339 10.5999H5.36576C5.38482 9.81891 5.47302 9.04117 5.62932 8.27576C6.41864 8.32755 7.20883 8.35397 7.99988 8.35503C8.79036 8.35503 9.58035 8.32861 10.3699 8.27579ZM11.4338 11.3999H14.306C14.2483 12.3375 13.981 13.2502 13.5236 14.0708C12.7429 13.9498 11.9596 13.8549 11.1737 13.7861C11.328 12.9995 11.4151 12.2012 11.4338 11.3999ZM13.0439 7.19265C12.3613 7.29113 11.6767 7.36911 10.99 7.42657C10.8666 6.96706 10.7074 6.51791 10.5139 6.08324C10.3373 5.68323 10.115 5.30497 9.85153 4.95599C11.1248 5.34648 12.2421 6.12929 13.0439 7.19265ZM3.53095 6.53095C4.26133 5.79987 5.1599 5.25911 6.14789 4.95608C6.1329 4.9755 6.11748 4.99405 6.10271 5.01387C5.59488 5.7449 5.22498 6.56262 5.01124 7.42669C4.32451 7.36853 3.63936 7.29051 2.95581 7.19265C3.13211 6.95914 3.32427 6.73805 3.53095 6.53095ZM2.95581 14.8071C3.63842 14.7086 4.32307 14.6306 5.00978 14.5732C5.13319 15.0327 5.29237 15.4818 5.48585 15.9165C5.66249 16.3165 5.88476 16.6948 6.14822 17.0438C4.87496 16.6533 3.75764 15.8705 2.95581 14.8071ZM12.4688 15.4688C11.7384 16.1999 10.8399 16.7406 9.85186 17.0437C9.86686 17.0243 9.88227 17.0057 9.89705 16.9859C10.4049 16.2549 10.7748 15.4371 10.9885 14.5731C11.6753 14.6312 12.3604 14.7092 13.044 14.8071C12.8677 15.0406 12.6755 15.2617 12.4688 15.4688Z" fill="#FFA360"/>
</g>
<rect x="0.5" y="3.5" width="15" height="15" stroke="#FFA360"/>
<mask id="path-4-outside-1_5503_35363" maskUnits="userSpaceOnUse" x="22" y="4" width="27" height="15" fill="black">
<rect fill="white" x="22" y="4" width="27" height="15"/>
<path d="M23.8941 15V5.228H30.3341V6.866H25.7421V9.232H29.8021V10.87H25.7421V13.362H30.3341V15H23.8941ZM32.1766 15V7.692H33.9686V8.91H34.0386C34.188 8.518 34.4213 8.19133 34.7386 7.93C35.0653 7.65933 35.5133 7.524 36.0826 7.524C36.8386 7.524 37.4173 7.77133 37.8186 8.266C38.22 8.76067 38.4206 9.46533 38.4206 10.38V15H36.6286V10.562C36.6286 10.0393 36.5353 9.64733 36.3486 9.386C36.162 9.12467 35.854 8.994 35.4246 8.994C35.238 8.994 35.056 9.022 34.8786 9.078C34.7106 9.12467 34.5566 9.19933 34.4166 9.302C34.286 9.39533 34.1786 9.51667 34.0946 9.666C34.0106 9.806 33.9686 9.974 33.9686 10.17V15H32.1766ZM47.0011 15.616C47.0011 15.9987 46.9311 16.3347 46.7911 16.624C46.6604 16.9227 46.4411 17.17 46.1331 17.366C45.8251 17.562 45.4284 17.7113 44.9431 17.814C44.4578 17.9167 43.8651 17.968 43.1651 17.968C42.5491 17.968 42.0264 17.926 41.5971 17.842C41.1678 17.7673 40.8131 17.6553 40.5331 17.506C40.2624 17.366 40.0664 17.1887 39.9451 16.974C39.8238 16.7593 39.7631 16.5167 39.7631 16.246C39.7631 15.8353 39.8751 15.5133 40.0991 15.28C40.3324 15.056 40.6544 14.9113 41.0651 14.846V14.692C40.7664 14.6173 40.5331 14.4727 40.3651 14.258C40.2064 14.034 40.1271 13.7727 40.1271 13.474C40.1271 13.2873 40.1644 13.124 40.2391 12.984C40.3138 12.8347 40.4118 12.7087 40.5331 12.606C40.6638 12.5033 40.8084 12.4193 40.9671 12.354C41.1258 12.2793 41.2938 12.2233 41.4711 12.186V12.13C41.0231 11.9247 40.6871 11.64 40.4631 11.276C40.2484 10.912 40.1411 10.4873 40.1411 10.002C40.1411 9.25533 40.3978 8.658 40.9111 8.21C41.4244 7.75267 42.1758 7.524 43.1651 7.524C43.3891 7.524 43.6084 7.538 43.8231 7.566C44.0471 7.594 44.2524 7.64067 44.4391 7.706V7.468C44.4391 6.75867 44.7844 6.404 45.4751 6.404H46.6091V7.776H45.0551V7.972C45.4378 8.18667 45.7224 8.46667 45.9091 8.812C46.0958 9.15733 46.1891 9.554 46.1891 10.002C46.1891 10.7393 45.9324 11.332 45.4191 11.78C44.9151 12.228 44.1638 12.452 43.1651 12.452C42.7358 12.452 42.3624 12.41 42.0451 12.326C41.9051 12.3913 41.7838 12.48 41.6811 12.592C41.5784 12.6947 41.5271 12.8253 41.5271 12.984C41.5271 13.348 41.8444 13.53 42.4791 13.53H44.4391C45.3351 13.53 45.9838 13.7167 46.3851 14.09C46.7958 14.454 47.0011 14.9627 47.0011 15.616ZM45.3211 15.826C45.3211 15.5927 45.2278 15.4107 45.0411 15.28C44.8544 15.1493 44.5324 15.084 44.0751 15.084H41.5831C41.3311 15.2707 41.2051 15.5227 41.2051 15.84C41.2051 16.12 41.3218 16.3393 41.5551 16.498C41.7884 16.6567 42.1851 16.736 42.7451 16.736H43.6411C44.2291 16.736 44.6538 16.6613 44.9151 16.512C45.1858 16.3627 45.3211 16.134 45.3211 15.826ZM43.1651 11.234C44.0424 11.234 44.4811 10.8607 44.4811 10.114V9.876C44.4811 9.12933 44.0424 8.756 43.1651 8.756C42.2878 8.756 41.8491 9.12933 41.8491 9.876V10.114C41.8491 10.8607 42.2878 11.234 43.1651 11.234Z"/>
</mask>
<path d="M23.8941 15V5.228H30.3341V6.866H25.7421V9.232H29.8021V10.87H25.7421V13.362H30.3341V15H23.8941ZM32.1766 15V7.692H33.9686V8.91H34.0386C34.188 8.518 34.4213 8.19133 34.7386 7.93C35.0653 7.65933 35.5133 7.524 36.0826 7.524C36.8386 7.524 37.4173 7.77133 37.8186 8.266C38.22 8.76067 38.4206 9.46533 38.4206 10.38V15H36.6286V10.562C36.6286 10.0393 36.5353 9.64733 36.3486 9.386C36.162 9.12467 35.854 8.994 35.4246 8.994C35.238 8.994 35.056 9.022 34.8786 9.078C34.7106 9.12467 34.5566 9.19933 34.4166 9.302C34.286 9.39533 34.1786 9.51667 34.0946 9.666C34.0106 9.806 33.9686 9.974 33.9686 10.17V15H32.1766ZM47.0011 15.616C47.0011 15.9987 46.9311 16.3347 46.7911 16.624C46.6604 16.9227 46.4411 17.17 46.1331 17.366C45.8251 17.562 45.4284 17.7113 44.9431 17.814C44.4578 17.9167 43.8651 17.968 43.1651 17.968C42.5491 17.968 42.0264 17.926 41.5971 17.842C41.1678 17.7673 40.8131 17.6553 40.5331 17.506C40.2624 17.366 40.0664 17.1887 39.9451 16.974C39.8238 16.7593 39.7631 16.5167 39.7631 16.246C39.7631 15.8353 39.8751 15.5133 40.0991 15.28C40.3324 15.056 40.6544 14.9113 41.0651 14.846V14.692C40.7664 14.6173 40.5331 14.4727 40.3651 14.258C40.2064 14.034 40.1271 13.7727 40.1271 13.474C40.1271 13.2873 40.1644 13.124 40.2391 12.984C40.3138 12.8347 40.4118 12.7087 40.5331 12.606C40.6638 12.5033 40.8084 12.4193 40.9671 12.354C41.1258 12.2793 41.2938 12.2233 41.4711 12.186V12.13C41.0231 11.9247 40.6871 11.64 40.4631 11.276C40.2484 10.912 40.1411 10.4873 40.1411 10.002C40.1411 9.25533 40.3978 8.658 40.9111 8.21C41.4244 7.75267 42.1758 7.524 43.1651 7.524C43.3891 7.524 43.6084 7.538 43.8231 7.566C44.0471 7.594 44.2524 7.64067 44.4391 7.706V7.468C44.4391 6.75867 44.7844 6.404 45.4751 6.404H46.6091V7.776H45.0551V7.972C45.4378 8.18667 45.7224 8.46667 45.9091 8.812C46.0958 9.15733 46.1891 9.554 46.1891 10.002C46.1891 10.7393 45.9324 11.332 45.4191 11.78C44.9151 12.228 44.1638 12.452 43.1651 12.452C42.7358 12.452 42.3624 12.41 42.0451 12.326C41.9051 12.3913 41.7838 12.48 41.6811 12.592C41.5784 12.6947 41.5271 12.8253 41.5271 12.984C41.5271 13.348 41.8444 13.53 42.4791 13.53H44.4391C45.3351 13.53 45.9838 13.7167 46.3851 14.09C46.7958 14.454 47.0011 14.9627 47.0011 15.616ZM45.3211 15.826C45.3211 15.5927 45.2278 15.4107 45.0411 15.28C44.8544 15.1493 44.5324 15.084 44.0751 15.084H41.5831C41.3311 15.2707 41.2051 15.5227 41.2051 15.84C41.2051 16.12 41.3218 16.3393 41.5551 16.498C41.7884 16.6567 42.1851 16.736 42.7451 16.736H43.6411C44.2291 16.736 44.6538 16.6613 44.9151 16.512C45.1858 16.3627 45.3211 16.134 45.3211 15.826ZM43.1651 11.234C44.0424 11.234 44.4811 10.8607 44.4811 10.114V9.876C44.4811 9.12933 44.0424 8.756 43.1651 8.756C42.2878 8.756 41.8491 9.12933 41.8491 9.876V10.114C41.8491 10.8607 42.2878 11.234 43.1651 11.234Z" fill="#FFA360"/>
<path d="M23.8941 15H22.8941V16H23.8941V15ZM23.8941 5.228V4.228H22.8941V5.228H23.8941ZM30.3341 5.228H31.3341V4.228H30.3341V5.228ZM30.3341 6.866V7.866H31.3341V6.866H30.3341ZM25.7421 6.866V5.866H24.7421V6.866H25.7421ZM25.7421 9.232H24.7421V10.232H25.7421V9.232ZM29.8021 9.232H30.8021V8.232H29.8021V9.232ZM29.8021 10.87V11.87H30.8021V10.87H29.8021ZM25.7421 10.87V9.87H24.7421V10.87H25.7421ZM25.7421 13.362H24.7421V14.362H25.7421V13.362ZM30.3341 13.362H31.3341V12.362H30.3341V13.362ZM30.3341 15V16H31.3341V15H30.3341ZM24.8941 15V5.228H22.8941V15H24.8941ZM23.8941 6.228H30.3341V4.228H23.8941V6.228ZM29.3341 5.228V6.866H31.3341V5.228H29.3341ZM30.3341 5.866H25.7421V7.866H30.3341V5.866ZM24.7421 6.866V9.232H26.7421V6.866H24.7421ZM25.7421 10.232H29.8021V8.232H25.7421V10.232ZM28.8021 9.232V10.87H30.8021V9.232H28.8021ZM29.8021 9.87H25.7421V11.87H29.8021V9.87ZM24.7421 10.87V13.362H26.7421V10.87H24.7421ZM25.7421 14.362H30.3341V12.362H25.7421V14.362ZM29.3341 13.362V15H31.3341V13.362H29.3341ZM30.3341 14H23.8941V16H30.3341V14ZM32.1766 15H31.1766V16H32.1766V15ZM32.1766 7.692V6.692H31.1766V7.692H32.1766ZM33.9686 7.692H34.9686V6.692H33.9686V7.692ZM33.9686 8.91H32.9686V9.91H33.9686V8.91ZM34.0386 8.91V9.91H34.7278L34.9731 9.266L34.0386 8.91ZM34.7386 7.93L35.3743 8.70193L35.3766 8.70002L34.7386 7.93ZM38.4206 15V16H39.4206V15H38.4206ZM36.6286 15H35.6286V16H36.6286V15ZM36.3486 9.386L35.5349 9.96724L35.5349 9.96724L36.3486 9.386ZM34.8786 9.078L35.1463 10.0415L35.1631 10.0368L35.1798 10.0316L34.8786 9.078ZM34.4166 9.302L34.9979 10.1158L35.008 10.1084L34.4166 9.302ZM34.0946 9.666L34.9521 10.1805L34.9593 10.1685L34.9662 10.1563L34.0946 9.666ZM33.9686 15V16H34.9686V15H33.9686ZM33.1766 15V7.692H31.1766V15H33.1766ZM32.1766 8.692H33.9686V6.692H32.1766V8.692ZM32.9686 7.692V8.91H34.9686V7.692H32.9686ZM33.9686 9.91H34.0386V7.91H33.9686V9.91ZM34.9731 9.266C35.062 9.03276 35.1938 8.85057 35.3743 8.70193L34.1029 7.15807C33.6487 7.5321 33.314 8.00324 33.1041 8.554L34.9731 9.266ZM35.3766 8.70002C35.4707 8.62206 35.6663 8.524 36.0826 8.524V6.524C35.3603 6.524 34.6599 6.69661 34.1006 7.15998L35.3766 8.70002ZM36.0826 8.524C36.5999 8.524 36.8668 8.68006 37.0421 8.89604L38.5952 7.63596C37.9677 6.8626 37.0774 6.524 36.0826 6.524V8.524ZM37.0421 8.89604C37.2474 9.14918 37.4206 9.59715 37.4206 10.38H39.4206C39.4206 9.33352 39.1925 8.37215 38.5952 7.63596L37.0421 8.89604ZM37.4206 10.38V15H39.4206V10.38H37.4206ZM38.4206 14H36.6286V16H38.4206V14ZM37.6286 15V10.562H35.6286V15H37.6286ZM37.6286 10.562C37.6286 9.95049 37.5249 9.31227 37.1624 8.80476L35.5349 9.96724C35.5457 9.9824 35.6286 10.1282 35.6286 10.562H37.6286ZM37.1624 8.80476C36.7281 8.19686 36.058 7.994 35.4246 7.994V9.994C35.5415 9.994 35.5862 10.0122 35.5871 10.0126C35.5871 10.0126 35.5865 10.0123 35.5853 10.0117C35.5841 10.0112 35.5825 10.0103 35.5804 10.0091C35.5762 10.0066 35.5708 10.003 35.5648 9.99825C35.5519 9.98807 35.5417 9.97673 35.5349 9.96724L37.1624 8.80476ZM35.4246 7.994C35.1362 7.994 34.8526 8.03754 34.5775 8.12442L35.1798 10.0316C35.2593 10.0065 35.3397 9.994 35.4246 9.994V7.994ZM34.611 8.11448C34.327 8.19337 34.0632 8.3211 33.8253 8.49559L35.008 10.1084C35.05 10.0776 35.0943 10.056 35.1463 10.0415L34.611 8.11448ZM33.8354 8.48827C33.5775 8.67247 33.374 8.90733 33.2231 9.17574L34.9662 10.1563C34.9832 10.126 34.9944 10.1182 34.9979 10.1157L33.8354 8.48827ZM33.2371 9.1515C33.0427 9.47549 32.9686 9.82925 32.9686 10.17H34.9686C34.9686 10.1432 34.9715 10.1346 34.9703 10.1395C34.9696 10.142 34.9681 10.1474 34.965 10.1549C34.962 10.1624 34.9577 10.1712 34.9521 10.1805L33.2371 9.1515ZM32.9686 10.17V15H34.9686V10.17H32.9686ZM33.9686 14H32.1766V16H33.9686V14ZM46.7911 16.624L45.8909 16.1884L45.8826 16.2057L45.8749 16.2232L46.7911 16.624ZM46.1331 17.366L45.5962 16.5223L46.1331 17.366ZM44.9431 17.814L44.7361 16.8356L44.9431 17.814ZM41.5971 17.842L41.7891 16.8606L41.7788 16.8586L41.7684 16.8568L41.5971 17.842ZM40.5331 17.506L41.0037 16.6236L40.9925 16.6178L40.5331 17.506ZM39.9451 16.974L40.8157 16.4819L39.9451 16.974ZM40.0991 15.28L39.4066 14.5586L39.3918 14.5727L39.3777 14.5875L40.0991 15.28ZM41.0651 14.846L41.2222 15.8336L42.0651 15.6995V14.846H41.0651ZM41.0651 14.692H42.0651V13.9112L41.3076 13.7219L41.0651 14.692ZM40.3651 14.258L39.5491 14.836L39.5629 14.8555L39.5776 14.8743L40.3651 14.258ZM40.2391 12.984L41.1214 13.4546L41.1276 13.443L41.1335 13.4312L40.2391 12.984ZM40.5331 12.606L39.9153 11.8197L39.901 11.8309L39.8872 11.8426L40.5331 12.606ZM40.9671 12.354L41.3478 13.2787L41.3706 13.2693L41.3929 13.2588L40.9671 12.354ZM41.4711 12.186L41.6771 13.1645L42.4711 12.9974V12.186H41.4711ZM41.4711 12.13H42.4711V11.4883L41.8877 11.2209L41.4711 12.13ZM40.4631 11.276L39.6017 11.784L39.6065 11.7921L39.6114 11.8001L40.4631 11.276ZM40.9111 8.21L41.5687 8.96346L41.5763 8.95666L40.9111 8.21ZM43.8231 7.566L43.6938 8.55761L43.6991 8.55828L43.8231 7.566ZM44.4391 7.706L44.1087 8.64986L45.4391 9.11548V7.706H44.4391ZM46.6091 6.404H47.6091V5.404H46.6091V6.404ZM46.6091 7.776V8.776H47.6091V7.776H46.6091ZM45.0551 7.776V6.776H44.0551V7.776H45.0551ZM45.0551 7.972H44.0551V8.55762L44.5658 8.84414L45.0551 7.972ZM45.9091 8.812L45.0294 9.28752L45.9091 8.812ZM45.4191 11.78L44.7615 11.0265L44.7547 11.0326L45.4191 11.78ZM42.0451 12.326L42.301 11.3593L41.9506 11.2666L41.6222 11.4198L42.0451 12.326ZM41.6811 12.592L42.3882 13.2991L42.4036 13.2837L42.4182 13.2677L41.6811 12.592ZM46.3851 14.09L45.704 14.8222L45.7128 14.8304L45.7218 14.8383L46.3851 14.09ZM45.0411 15.28L45.6146 14.4608V14.4608L45.0411 15.28ZM41.5831 15.084V14.084H41.2531L40.9879 14.2804L41.5831 15.084ZM41.5551 16.498L40.9928 17.3249H40.9928L41.5551 16.498ZM44.9151 16.512L44.432 15.6364L44.4255 15.64L44.419 15.6438L44.9151 16.512ZM46.0011 15.616C46.0011 15.8763 45.9539 16.0584 45.8909 16.1884L47.6913 17.0596C47.9083 16.611 48.0011 16.1211 48.0011 15.616H46.0011ZM45.8749 16.2232C45.8333 16.3185 45.7574 16.4197 45.5962 16.5223L46.67 18.2097C47.1247 17.9203 47.4876 17.5269 47.7073 17.0248L45.8749 16.2232ZM45.5962 16.5223C45.4183 16.6355 45.1436 16.7495 44.7361 16.8356L45.1501 18.7923C45.7133 18.6732 46.2319 18.4885 46.67 18.2097L45.5962 16.5223ZM44.7361 16.8356C44.3402 16.9194 43.8215 16.968 43.1651 16.968V18.968C43.9087 18.968 44.5753 18.9139 45.1501 18.7923L44.7361 16.8356ZM43.1651 16.968C42.5897 16.968 42.1354 16.9284 41.7891 16.8606L41.4051 18.8234C41.9174 18.9236 42.5085 18.968 43.1651 18.968V16.968ZM41.7684 16.8568C41.4075 16.794 41.1624 16.7083 41.0037 16.6236L40.0625 18.3884C40.4638 18.6024 40.928 18.7406 41.4258 18.8272L41.7684 16.8568ZM40.9925 16.6178C40.8536 16.5459 40.821 16.4914 40.8157 16.4819L39.0745 17.4661C39.3119 17.886 39.6712 18.1861 40.0737 18.3942L40.9925 16.6178ZM40.8157 16.4819C40.7873 16.4317 40.7631 16.3615 40.7631 16.246H38.7631C38.7631 16.6718 38.8602 17.0869 39.0745 17.4661L40.8157 16.4819ZM40.7631 16.246C40.7631 16.0208 40.82 15.9731 40.8205 15.9725L39.3777 14.5875C38.9302 15.0536 38.7631 15.6499 38.7631 16.246H40.7631ZM40.7916 16.0014C40.8408 15.9541 40.9556 15.876 41.2222 15.8336L40.908 13.8584C40.3532 13.9467 39.824 14.1579 39.4066 14.5586L40.7916 16.0014ZM42.0651 14.846V14.692H40.0651V14.846H42.0651ZM41.3076 13.7219C41.1955 13.6938 41.1658 13.6586 41.1526 13.6417L39.5776 14.8743C39.9004 15.2868 40.3373 15.5408 40.8226 15.6621L41.3076 13.7219ZM41.1811 13.68C41.1528 13.64 41.1271 13.5848 41.1271 13.474H39.1271C39.1271 13.9606 39.2601 14.428 39.5491 14.836L41.1811 13.68ZM41.1271 13.474C41.1271 13.4473 41.1298 13.4351 41.13 13.4343C41.13 13.4339 41.1296 13.4359 41.1282 13.4397C41.1268 13.4436 41.1246 13.4487 41.1214 13.4546L39.3567 12.5134C39.1923 12.8218 39.1271 13.1522 39.1271 13.474H41.1271ZM41.1335 13.4312C41.1507 13.3968 41.1663 13.3802 41.179 13.3694L39.8872 11.8426C39.6573 12.0371 39.4768 12.2725 39.3447 12.5368L41.1335 13.4312ZM41.1509 13.3923C41.207 13.3483 41.2714 13.3102 41.3478 13.2787L40.5863 11.4293C40.3455 11.5285 40.1206 11.6584 39.9153 11.8197L41.1509 13.3923ZM41.3929 13.2588C41.4791 13.2183 41.5731 13.1864 41.6771 13.1645L41.2651 11.2074C41.0144 11.2602 40.7724 11.3404 40.5413 11.4492L41.3929 13.2588ZM42.4711 12.186V12.13H40.4711V12.186H42.4711ZM41.8877 11.2209C41.5914 11.0851 41.4198 10.9227 41.3148 10.7519L39.6114 11.8001C39.9543 12.3573 40.4548 12.7642 41.0544 13.0391L41.8877 11.2209ZM41.3245 10.768C41.2133 10.5796 41.1411 10.3356 41.1411 10.002H39.1411C39.1411 10.639 39.2835 11.2444 39.6017 11.784L41.3245 10.768ZM41.1411 10.002C41.1411 9.513 41.2953 9.20196 41.5686 8.96342L40.2536 7.45658C39.5002 8.11404 39.1411 8.99767 39.1411 10.002H41.1411ZM41.5763 8.95666C41.8402 8.72158 42.3147 8.524 43.1651 8.524V6.524C42.0368 6.524 41.0087 6.78376 40.2459 7.46334L41.5763 8.95666ZM43.1651 8.524C43.3473 8.524 43.5234 8.53538 43.6938 8.5576L43.9524 6.5744C43.6934 6.54062 43.4309 6.524 43.1651 6.524V8.524ZM43.6991 8.55828C43.8624 8.5787 43.9976 8.61094 44.1087 8.64986L44.7694 6.76214C44.5073 6.67039 44.2317 6.6093 43.9471 6.57372L43.6991 8.55828ZM45.4391 7.706V7.468H43.4391V7.706H45.4391ZM45.4391 7.468C45.4391 7.36875 45.4515 7.3219 45.455 7.31121C45.4564 7.3069 45.4551 7.31234 45.4482 7.32406C45.4412 7.33615 45.4301 7.35163 45.4146 7.36762C45.399 7.38364 45.3828 7.39612 45.3684 7.40497C45.3544 7.41361 45.3457 7.41662 45.3457 7.41659C45.3478 7.41589 45.3851 7.404 45.4751 7.404V5.404C44.9687 5.404 44.4069 5.53562 43.9816 5.97238C43.5612 6.4042 43.4391 6.96578 43.4391 7.468H45.4391ZM45.4751 7.404H46.6091V5.404H45.4751V7.404ZM45.6091 6.404V7.776H47.6091V6.404H45.6091ZM46.6091 6.776H45.0551V8.776H46.6091V6.776ZM44.0551 7.776V7.972H46.0551V7.776H44.0551ZM44.5658 8.84414C44.8035 8.97745 44.9431 9.1278 45.0294 9.28752L46.7888 8.33648C46.5018 7.80554 46.072 7.39588 45.5443 7.09986L44.5658 8.84414ZM45.0294 9.28752C45.1266 9.46727 45.1891 9.69633 45.1891 10.002H47.1891C47.1891 9.41167 47.065 8.8474 46.7888 8.33648L45.0294 9.28752ZM45.1891 10.002C45.1891 10.4773 45.0379 10.7854 44.7616 11.0266L46.0766 12.5334C46.827 11.8786 47.1891 11.0014 47.1891 10.002H45.1891ZM44.7547 11.0326C44.5046 11.255 44.0339 11.452 43.1651 11.452V13.452C44.2937 13.452 45.3256 13.201 46.0835 12.5274L44.7547 11.0326ZM43.1651 11.452C42.7972 11.452 42.5138 11.4156 42.301 11.3593L41.7892 13.2927C42.2111 13.4044 42.6743 13.452 43.1651 13.452V11.452ZM41.6222 11.4198C41.3654 11.5397 41.1368 11.7059 40.9439 11.9163L42.4182 13.2677C42.4308 13.2541 42.4448 13.243 42.468 13.2322L41.6222 11.4198ZM40.974 11.8849C40.6655 12.1934 40.5271 12.5872 40.5271 12.984H42.5271C42.5271 13.0136 42.522 13.0673 42.4963 13.1327C42.47 13.1997 42.4307 13.2566 42.3882 13.2991L40.974 11.8849ZM40.5271 12.984C40.5271 13.5265 40.8 13.9928 41.2676 14.261C41.6517 14.4812 42.0989 14.53 42.4791 14.53V12.53C42.3653 12.53 42.2919 12.5216 42.2504 12.5137C42.207 12.5054 42.2203 12.5018 42.2626 12.526C42.3111 12.5539 42.3895 12.6143 42.4512 12.7204C42.513 12.8268 42.5271 12.9258 42.5271 12.984H40.5271ZM42.4791 14.53H44.4391V12.53H42.4791V14.53ZM44.4391 14.53C45.2337 14.53 45.5747 14.7019 45.704 14.8222L47.0662 13.3578C46.3928 12.7314 45.4365 12.53 44.4391 12.53V14.53ZM45.7218 14.8383C45.8774 14.9763 46.0011 15.1891 46.0011 15.616H48.0011C48.0011 14.7362 47.7141 13.9317 47.0484 13.3417L45.7218 14.8383ZM46.3211 15.826C46.3211 15.2757 46.0761 14.7839 45.6146 14.4608L44.4676 16.0992C44.443 16.082 44.3971 16.0407 44.3613 15.9708C44.3259 15.9019 44.3211 15.8455 44.3211 15.826H46.3211ZM45.6146 14.4608C45.1596 14.1423 44.5663 14.084 44.0751 14.084V16.084C44.2608 16.084 44.385 16.0977 44.4607 16.113C44.542 16.1295 44.525 16.1394 44.4676 16.0992L45.6146 14.4608ZM44.0751 14.084H41.5831V16.084H44.0751V14.084ZM40.9879 14.2804C40.4777 14.6583 40.2051 15.2103 40.2051 15.84H42.2051C42.2051 15.827 42.2064 15.8246 42.2051 15.8303C42.2037 15.8365 42.2005 15.8473 42.194 15.8602C42.1876 15.8732 42.1805 15.883 42.1753 15.889C42.1703 15.8947 42.17 15.8938 42.1783 15.8876L40.9879 14.2804ZM40.2051 15.84C40.2051 16.4542 40.4882 16.9818 40.9928 17.3249L42.1174 15.6711C42.1166 15.6705 42.1477 15.6927 42.1755 15.7449C42.1882 15.7689 42.1963 15.7919 42.2007 15.8111C42.2051 15.8298 42.2051 15.8404 42.2051 15.84H40.2051ZM40.9928 17.3249C41.4893 17.6626 42.1487 17.736 42.7451 17.736V15.736C42.5078 15.736 42.3382 15.7188 42.2237 15.6959C42.1041 15.672 42.0865 15.6501 42.1174 15.6711L40.9928 17.3249ZM42.7451 17.736H43.6411V15.736H42.7451V17.736ZM43.6411 17.736C44.2663 17.736 44.913 17.665 45.4112 17.3802L44.419 15.6438C44.4216 15.6423 44.3711 15.6698 44.2274 15.6951C44.0886 15.7195 43.8964 15.736 43.6411 15.736V17.736ZM45.3982 17.3876C45.6639 17.241 45.9077 17.0293 46.0802 16.7378C46.2528 16.4462 46.3211 16.1303 46.3211 15.826H44.3211C44.3211 15.8297 44.3217 15.7822 44.359 15.7192C44.3962 15.6564 44.4369 15.6337 44.432 15.6364L45.3982 17.3876ZM43.1651 12.234C43.722 12.234 44.3262 12.1189 44.8002 11.7155C45.3051 11.2859 45.4811 10.6875 45.4811 10.114H43.4811C43.4811 10.205 43.4675 10.2398 43.4677 10.2393C43.4703 10.2327 43.4824 10.2108 43.504 10.1925C43.5221 10.177 43.52 10.1872 43.4679 10.202C43.4131 10.2175 43.3168 10.234 43.1651 10.234V12.234ZM45.4811 10.114V9.876H43.4811V10.114H45.4811ZM45.4811 9.876C45.4811 9.30255 45.3051 8.70412 44.8002 8.27446C44.3262 7.87108 43.722 7.756 43.1651 7.756V9.756C43.3168 9.756 43.4131 9.77249 43.4679 9.78804C43.52 9.8028 43.5221 9.81296 43.504 9.79754C43.4824 9.77918 43.4703 9.75728 43.4677 9.75069C43.4675 9.75017 43.4811 9.78504 43.4811 9.876H45.4811ZM43.1651 7.756C42.6082 7.756 42.0039 7.87108 41.53 8.27446C41.0251 8.70412 40.8491 9.30255 40.8491 9.876H42.8491C42.8491 9.78504 42.8627 9.75017 42.8625 9.75069C42.8599 9.75728 42.8478 9.77918 42.8262 9.79754C42.8081 9.81296 42.8102 9.8028 42.8623 9.78804C42.9171 9.77249 43.0134 9.756 43.1651 9.756V7.756ZM40.8491 9.876V10.114H42.8491V9.876H40.8491ZM40.8491 10.114C40.8491 10.6875 41.0251 11.2859 41.53 11.7155C42.0039 12.1189 42.6082 12.234 43.1651 12.234V10.234C43.0134 10.234 42.9171 10.2175 42.8623 10.202C42.8102 10.1872 42.8081 10.177 42.8262 10.1925C42.8478 10.2108 42.8599 10.2327 42.8625 10.2393C42.8627 10.2398 42.8491 10.205 42.8491 10.114H40.8491Z" fill="#FFA360" mask="url(#path-4-outside-1_5503_35363)"/>
<defs>
<clipPath id="clip0_5503_35363">
<rect y="3" width="16" height="16" fill="white"/>
</clipPath>
</defs>
</svg>
