<svg width="187" height="44" viewBox="0 0 187 44" fill="none" xmlns="http://www.w3.org/2000/svg">
<g clip-path="url(#clip0_6073_32781)">
<path d="M18.876 36.6147C12.6686 36.1293 9.56495 31.402 9.56495 31.402H2.48328C10.1551 45.7315 25.0397 42.6503 25.0397 42.6503V24.1846H18.876V36.6147Z" fill="white"/>
<path d="M6.98574 17.1992H42.9624C42.9624 17.1992 40.3832 1.70904 23.0944 0.506124C23.0944 0.506124 10.0239 -0.1903 4.18805 9.49631H12.3407C12.3407 9.49631 22.8102 1.32917 32.93 11.0369H2.72363C2.72363 11.0369 -2.5002 19.0985 1.52149 29.7559H8.20974C8.23159 29.7559 4.2099 22.5173 6.98574 17.1992Z" fill="white"/>
<path d="M26.985 36.2566V42.3978C26.985 42.3978 40.886 39.9286 43.5526 23.9531H37.3233C37.3452 23.9531 36.3616 33.1755 26.985 36.2566Z" fill="white"/>
<path d="M21.936 17.6641C20.2311 17.6641 18.8104 19.0147 18.8104 20.6819C18.8104 22.3491 20.2311 23.6786 21.936 23.6786C23.6408 23.6786 25.0397 22.3491 25.0397 20.6819C25.0397 19.0147 23.6408 17.6641 21.936 17.6641Z" fill="white"/>
<path d="M150.127 40.7936C149.778 39.4852 149.122 39.3374 149.122 39.3374C148.75 39.1053 148.685 39.2741 148.685 39.2741C148.466 39.7173 148.466 40.1605 148.466 40.1605C149.056 40.477 149.319 40.8358 149.319 40.8358C149.625 41.0891 149.384 41.1946 149.384 41.1946H147.679C147.439 41.7222 147.614 42.2498 147.614 42.2498H149.668C150.411 42.1442 150.127 40.7936 150.127 40.7936Z" fill="white"/>
<path d="M179.481 38.2609C178.891 38.0921 179.044 37.459 179.044 37.459C178.541 38.0288 178.301 38.7885 178.301 38.7885C178.782 39.1684 178.891 40.1603 178.891 40.1603C179.153 41.131 178.869 41.2577 178.869 41.2577H177.208H177.011C177.033 40.8989 177.033 39.8437 177.033 39.8437C177.033 39.6538 176.902 39.8015 176.902 39.8015C176.815 39.8648 176.64 40.0547 176.727 40.0125C176.465 40.1603 176.421 40.5823 176.421 40.5823L176.399 41.2788H174.476V40.0125C174.476 39.7171 174.323 39.9703 174.323 39.9703C174.148 40.0758 173.886 40.4979 173.886 40.4979C173.711 40.6456 173.798 40.9622 173.798 40.9622L173.82 41.2577H173.143C173.186 41.0466 173.208 40.0336 173.208 40.0336C173.208 39.8226 173.077 39.9492 173.077 39.9492C172.771 40.1603 172.684 40.4768 172.596 40.7512C172.509 41.0255 172.531 41.2365 172.531 41.2365H171.219C171.241 40.9622 171.329 39.8226 171.329 39.8226C171.263 39.8437 171.219 39.8648 171.219 39.8859C170.717 40.0969 170.717 40.709 170.717 40.709L170.695 40.7301V40.7934L170.673 41.2577H169.121C168.968 41.1943 168.99 41.0466 168.99 41.0466V40.6456V39.7171C168.815 39.7804 168.509 40.1392 168.509 40.1392C168.203 40.4346 168.203 40.8778 168.203 40.8778V41.2788H165.034C164.312 40.9411 164.772 39.9281 164.772 39.9281C164.837 39.6749 164.684 39.7804 164.684 39.7804C164.247 39.9914 164.203 40.4768 164.203 40.4768C163.788 42.0385 164.662 42.2495 164.662 42.2495H168.116C168.094 42.0807 168.247 41.9541 168.247 41.9541C168.312 41.7641 168.443 41.9541 168.443 41.9541C168.618 42.144 168.793 42.2495 168.793 42.2495H170.411C170.454 42.1651 170.52 42.144 170.52 42.144C170.695 41.9752 170.826 42.2495 170.826 42.2495H172.574C172.706 42.0174 172.771 42.2495 172.771 42.2495H176.115H176.225C176.246 42.0174 176.356 42.0174 176.356 42.0174C176.421 41.9963 176.465 41.9963 176.531 41.9963C176.618 42.0174 176.793 42.1651 176.815 42.2495H179.459C179.94 41.532 179.7 40.5401 179.7 40.5401C179.634 40.3502 179.612 39.9281 179.612 39.9281C179.591 39.4638 180.115 38.894 180.115 38.894C180.596 38.7463 179.481 38.2609 179.481 38.2609Z" fill="white"/>
<path d="M125.691 38.3246L126.085 38.7255L126.675 38.1557L126.085 37.5859L125.691 38.008L125.276 37.5859L124.686 38.1557L125.276 38.7255L125.691 38.3246Z" fill="white"/>
<path d="M132.052 38.4303L131.614 38.0293L131.046 38.578L131.614 39.1478L132.052 38.7468L132.467 39.1478L133.035 38.578L132.467 38.0293L132.052 38.4303Z" fill="white"/>
<path d="M166.411 38.5771L165.821 39.1258L166.411 39.6956L166.826 39.2736L167.241 39.6956L167.81 39.1258L167.241 38.5771L166.826 38.957L166.411 38.5771Z" fill="white"/>
<path d="M176.115 43.2203L175.7 42.8193L175.11 43.368L175.7 43.9378L176.115 43.5369L176.531 43.9378L177.121 43.368L176.531 42.8193L176.115 43.2203Z" fill="white"/>
<path d="M155.242 43.368L155.832 43.9378L156.4 43.368L155.832 42.8193L155.242 43.368Z" fill="white"/>
<path d="M128.904 43.368L129.472 43.9378L130.063 43.368L129.472 42.8193L128.904 43.368Z" fill="white"/>
<path d="M162.739 39.8018C162.739 39.8018 162.564 39.2953 162.083 39.6119C162.083 39.6119 161.996 39.633 161.864 39.6963C161.515 39.844 160.925 40.1817 160.619 40.9414C160.619 40.9414 160.597 41.2369 160.16 41.2369H158.826C158.826 41.2369 158.52 41.2158 158.673 40.9836C158.673 40.9836 158.826 40.7726 158.826 40.6038C158.826 40.6038 159.001 40.4349 158.63 40.4349H158.039C158.039 40.4349 157.493 40.4983 157.143 40.2239C157.143 40.2239 156.684 40.034 156.182 39.8651C156.182 39.8651 155.373 39.4431 154.805 39.8651C154.805 39.8651 154.236 40.3294 154.04 40.8992C154.04 40.8992 153.93 41.1525 154.149 40.9836C154.149 40.9836 154.433 40.5616 155.307 40.7304C155.307 40.7304 155.657 40.8781 155.898 40.8781C155.898 40.8781 156.247 40.9836 155.919 41.1103C155.919 41.1103 155.745 41.1103 155.613 41.2158H153.122C153.122 41.2158 152.685 41.0258 152.313 40.3716C152.313 40.3716 152.094 39.9496 151.963 40.1817L151.526 40.9203C151.526 40.9203 151.417 41.0047 151.548 41.1314L152.051 41.7434C152.051 41.7434 152.226 41.9544 152.029 42.0388C152.029 42.0388 151.111 43.0096 150.499 43.2417C150.499 43.2417 149.996 43.3684 149.625 43.1362C149.625 43.1362 149.231 42.883 149.122 43.0307C149.122 43.0307 148.947 43.1784 149.297 43.3684C149.297 43.3684 149.756 43.6849 150.411 43.8748C150.411 43.8748 150.849 44.1703 151.57 43.8537C151.57 43.8537 152.466 43.2839 152.728 42.2077H155.154C155.154 42.2077 155.395 42.2499 155.657 42.1021C155.657 42.1021 155.941 41.9755 156.094 41.8278C156.094 41.8278 156.16 41.6801 156.553 41.659H157.646C157.646 41.659 157.908 41.5956 157.887 41.8489V42.1865H160.466C160.466 42.1865 160.575 41.9333 160.772 41.8489L160.859 41.6801L161.231 41.659C161.231 41.659 161.515 41.8067 161.864 41.9544C161.996 42.0177 162.149 42.0599 162.302 42.1021C162.302 42.1021 162.52 42.271 162.651 42.0599C162.651 42.0599 162.935 41.7223 163.045 41.4268C163.045 41.4268 163.198 41.1103 162.979 40.5827C162.979 40.5827 162.782 40.0973 162.739 39.8018ZM161.952 40.8992L161.843 40.8359L161.558 40.6249C161.558 40.6249 161.69 40.5194 161.843 40.5616C161.952 40.5827 162.039 40.6249 162.105 40.7726C162.127 40.7726 162.17 40.9836 161.952 40.8992Z" fill="white"/>
<path d="M159.504 38.4296L159.22 38.5984L159.351 38.6195L159.526 38.6406C159.679 38.6406 159.854 38.5773 160.029 38.4296C160.138 38.3452 160.269 38.2186 160.444 38.0286C160.466 38.0075 160.509 37.9653 160.531 37.9231L160.75 38.0708L160.925 38.1764L160.968 37.691L160.881 37.6277L160.772 37.5221L160.837 37.3533L160.903 37.1634L160.925 37.079V36.9734C160.925 36.678 160.815 36.5303 160.575 36.5303C160.509 36.5514 160.466 36.5725 160.422 36.5936C160.378 36.5936 160.356 36.6147 160.335 36.6147C160.269 36.6569 160.225 36.7202 160.16 36.8257C160.029 37.0579 159.963 37.2478 159.963 37.3744C159.963 37.4588 159.985 37.5221 160.029 37.5855L160.269 37.7965C160.007 38.0497 159.81 38.1975 159.723 38.2608L159.504 38.4296ZM160.247 37.079L160.269 36.9946L160.335 36.9734C160.378 36.9946 160.4 36.9946 160.444 36.9946C160.488 37.0157 160.531 37.0579 160.553 37.079C160.597 37.1423 160.619 37.1845 160.619 37.2689L160.597 37.4588L160.444 37.3533L160.422 37.3322L160.313 37.2478C160.269 37.1845 160.247 37.1212 160.247 37.079Z" fill="white"/>
<path d="M145.69 39.8015C145.537 39.3583 144.925 39.6959 144.772 39.7804C144.75 39.8015 144.729 39.8015 144.729 39.8015C143.636 40.1813 143.439 41.2365 143.439 41.2365L141.669 41.2576C141.516 41.1943 141.384 40.7722 141.384 40.7722C141.231 40.0969 140.663 39.9914 140.663 39.9914H135.352C134.871 39.9914 135.33 39.7804 135.33 39.7804C136.204 39.2106 137.232 38.9573 137.232 38.9573L137.909 37.9443C134.762 38.7463 134.04 40.1813 134.04 40.1813C133.603 41.0044 134.521 40.92 134.521 40.92H140.095L140.292 41.0677L140.182 41.2576H133.363C133.144 41.2787 133.101 41.0044 133.101 41.0044V39.8015C133.122 39.6326 132.991 39.7804 132.991 39.7804L132.401 40.5612V41.0466C132.423 41.2787 132.292 41.2154 132.292 41.2154H130.412C130.237 41.2154 130.259 41.0255 130.259 41.0255V39.8437C130.259 39.7382 130.15 39.8859 130.15 39.8859L129.56 40.5612V40.9411C129.538 41.2787 129.385 41.2576 129.385 41.2576H127.549C127.352 41.2365 127.243 40.6456 127.243 40.6456C127.221 39.8648 126.959 38.4508 126.959 38.4508L126.456 39.1895C126.281 39.4427 126.434 39.6115 126.434 39.6115C126.478 39.6748 126.412 39.7382 126.325 39.7804C126.216 39.8226 126.128 39.8437 126.128 39.8437C125.735 40.0125 125.32 40.3502 125.32 40.3502C124.817 40.6878 124.817 41.532 124.817 41.532C124.795 41.8063 124.97 41.8274 124.97 41.8274C125.516 41.7641 125.91 41.9963 125.91 41.9963C126.15 42.1018 126.325 41.9963 126.325 41.9963C126.347 41.9751 126.347 41.9751 126.347 41.9751C126.5 41.8274 126.653 41.5742 126.653 41.5742C126.784 41.5109 126.806 41.6164 126.806 41.6164L126.828 41.7219C126.828 41.9963 127.156 42.2073 127.156 42.2073H129.56V42.1018C129.757 41.8485 130.237 42.2284 130.237 42.2284H132.27C132.445 42.2495 132.445 42.0807 132.445 42.0807C132.685 41.8696 132.904 42.2073 132.904 42.2073H140.838L140.904 42.1018C140.969 41.8907 141.45 42.2284 141.45 42.2284H143.308L143.614 41.8696C143.767 41.5742 144.007 41.7008 144.007 41.7008C144.357 41.7641 144.597 41.8485 144.75 41.9118C145.035 42.0174 145.035 42.1018 145.035 42.1018C145.231 42.1651 145.428 42.1651 145.625 42.1018C145.625 41.8907 145.953 41.4476 145.953 41.4476C146.259 41.1732 146.018 40.8989 146.018 40.8989C145.865 40.4768 145.69 39.8015 145.69 39.8015ZM126.325 40.8778H125.932C125.932 40.8778 125.953 40.6667 126.15 40.5823C126.15 40.5823 126.216 40.5401 126.325 40.4346C126.347 40.4135 126.347 40.4135 126.391 40.3713V40.3502C126.391 40.3502 126.544 40.1391 126.609 40.3502L126.718 40.8355H126.325V40.8778ZM144.903 40.8989C144.903 40.8989 144.86 40.8566 144.772 40.8355C144.75 40.8355 144.707 40.8144 144.663 40.8144L144.641 40.7933C144.641 40.7933 144.27 40.7089 144.641 40.6034C144.641 40.6034 144.707 40.5612 144.794 40.5823C144.86 40.5823 144.969 40.6034 145.035 40.7089C145.013 40.7089 145.209 40.9411 144.903 40.8989Z" fill="white"/>
<path d="M182.017 41.3848C181.776 41.3848 181.579 41.5747 181.579 41.8068C181.579 42.039 181.776 42.2289 182.017 42.2289C182.257 42.2289 182.454 42.039 182.454 41.8068C182.454 41.5747 182.257 41.3848 182.017 41.3848Z" fill="white"/>
<path d="M184.268 41.3848C184.028 41.3848 183.831 41.5747 183.831 41.8068C183.831 42.039 184.006 42.2289 184.268 42.2289C184.508 42.2289 184.705 42.039 184.705 41.8068C184.727 41.5747 184.53 41.3848 184.268 41.3848Z" fill="white"/>
<path d="M186.563 41.3848C186.322 41.3848 186.126 41.5747 186.126 41.8068C186.126 42.039 186.322 42.2289 186.563 42.2289C186.803 42.2289 187 42.039 187 41.8068C186.978 41.5747 186.803 41.3848 186.563 41.3848Z" fill="white"/>
<path d="M50.6779 29.7141C50.6779 29.7141 50.809 31.8034 47.5961 32.4998V34.3569C47.5961 34.3569 52.0768 33.9771 52.7325 30.1995V20.0908H50.7435C50.7216 20.0908 50.8528 28.0891 50.6779 29.7141Z" fill="white"/>
<path d="M56.2297 30.516H58.5465H60.0328V33.9981H62.284V20.1963C62.284 20.1963 60.5136 20.4706 58.5465 22.2434C56.5138 24.0794 54.2625 27.5615 53.585 33.9981H55.6177C55.6177 33.9981 55.5739 32.6264 56.2297 30.516ZM58.5465 25.6411C59.3334 24.6281 60.0328 24.1216 60.0328 24.1216V28.3634H58.5465H57.0602C57.4974 27.2238 58.0438 26.3164 58.5465 25.6411Z" fill="white"/>
<path d="M71.1142 33.9134V31.9719C71.1142 31.9719 68.7536 31.3177 68.0323 29.0385C68.0323 29.0385 70.9175 27.5612 70.7208 24.1846C70.7208 24.1846 70.4148 20.9768 67.2892 20.1538C66.9395 20.0483 66.5242 19.985 66.0871 19.9639H63.8577V33.9134H65.8904V30.0092C65.8904 30.0092 65.9341 30.0726 66.1527 29.9881C66.1527 29.9881 66.5024 30.8534 67.3111 31.782C68.0542 32.6894 69.3001 33.6391 71.1142 33.9134ZM65.8904 27.4346V22.0742C66.4805 22.0742 66.9395 22.1798 67.2892 22.3486C68.6225 22.9817 68.6881 24.4168 68.6881 24.4168C68.7536 25.9995 68.0105 26.7593 67.2892 27.118C66.5898 27.4346 65.8904 27.4346 65.8904 27.4346Z" fill="white"/>
<path d="M74.4584 19.8799H72.3164V33.9139H74.4584V19.8799Z" fill="white"/>
<path d="M80.3816 29.0174C80.3816 29.0174 83.2667 27.5401 83.07 24.1846C83.07 24.1846 82.764 20.9557 79.6603 20.1327C79.3106 20.0272 78.8953 19.985 78.4582 19.9639H76.2069V33.9134H78.2177V30.0092C78.2177 30.0092 78.2833 30.0726 78.48 29.9459C78.48 29.9459 78.8297 30.8323 79.6385 31.782C80.4253 32.6683 81.6493 33.618 83.4634 33.8923V31.9297C83.4416 31.9508 81.081 31.3177 80.3816 29.0174ZM79.6385 27.0969C78.939 27.4346 78.2177 27.4346 78.2177 27.4346V22.032C78.8079 22.0531 79.2669 22.1587 79.6385 22.3275C80.9717 22.9606 81.0592 24.3745 81.0592 24.3745C81.1029 25.9784 80.3816 26.7382 79.6385 27.0969Z" fill="white"/>
<path d="M129.123 27.0343C129.123 23.0668 125.8 19.8379 121.713 19.8379C117.626 19.8379 114.347 23.0668 114.347 27.0343C114.347 30.9596 117.626 34.1884 121.713 34.1884C125.8 34.1884 129.123 30.9807 129.123 27.0343ZM121.691 32.2258C118.697 32.2258 116.293 29.8833 116.293 26.9921C116.293 24.1008 118.697 21.7583 121.67 21.7583H121.691C124.686 21.7794 127.068 24.1008 127.068 26.9921C127.09 29.8622 124.686 32.2258 121.691 32.2258Z" fill="white"/>
<path d="M106.304 19.7529C102.239 19.774 98.9382 22.9607 98.9382 26.9282C98.9382 30.8957 102.239 34.1035 106.282 34.1246H106.304C110.391 34.1246 113.714 30.8957 113.714 26.9282C113.714 22.9607 110.391 19.7529 106.304 19.7529ZM106.304 32.1408C103.288 32.1197 100.884 29.7772 100.884 26.9071C100.884 23.9948 103.288 21.6523 106.282 21.6523H106.304C109.277 21.6523 111.681 23.9948 111.681 26.9071C111.703 29.7983 109.298 32.1408 106.304 32.1408Z" fill="white"/>
<path d="M138.805 33.9134V31.9718C136.357 31.9085 134.194 27.4767 134.194 27.4767C139.024 24.1424 138.412 20.0693 138.412 20.0693H136.554C135.592 25.704 132.401 25.8518 132.401 25.8518V20.0904H130.587V33.8079H132.62V29.2917H132.904C135.112 33.7446 138.805 33.9134 138.805 33.9134Z" fill="white"/>
<path d="M145.865 26.2319C145.865 26.2319 143.964 25.43 142.849 24.628C142.849 24.628 140.991 23.0875 143.701 21.8001C143.701 21.8001 145.078 21.5469 145.909 22.3488L146.171 20.344C146.171 20.344 145.21 19.0989 142.718 19.9219C142.718 19.9219 140.488 20.5761 140.161 23.0664C140.161 23.0664 139.898 24.6069 141.406 26.1264C141.406 26.1264 142.543 26.9706 144.117 27.6037C144.117 27.6037 145.581 27.9835 145.406 29.6718C145.406 29.6718 145.319 31.1491 143.811 31.7189C143.811 31.7189 142.543 32.141 140.576 31.0225L140.401 33.0906C140.401 33.0906 141.822 34.188 143.374 33.977C143.374 33.977 147.177 33.6604 147.57 29.8829C147.504 29.8829 147.701 27.7092 145.865 26.2319Z" fill="white"/>
<path d="M152.685 33.6812V21.7154C152.685 21.7154 153.843 21.5676 155.439 22.7917L156.029 20.9345C156.029 20.9345 155.439 19.6472 151.504 19.4151C151.504 19.4151 149.275 19.394 146.827 20.8501L147.81 22.7283C147.81 22.7283 149.078 21.7787 150.455 21.7576V33.6812H152.685Z" fill="white"/>
<path d="M178.345 24.2267C177.995 21.6521 176.399 20.5125 174.826 20.0482C173.077 19.5206 171.372 19.7949 171.372 19.7949V33.6601H173.471V30.0513H173.689C174.039 30.7056 174.41 31.2543 174.826 31.6974C176.552 33.5757 178.607 33.7023 178.607 33.7023V31.8663C175.307 30.2624 175.591 28.8484 175.591 28.8484C178.52 27.0757 178.345 24.2267 178.345 24.2267ZM174.826 26.8225C174.148 27.2023 173.471 27.2868 173.471 27.2868V21.9264C174.017 21.8842 174.476 21.9897 174.826 22.1374C176.181 22.7495 176.181 24.3955 176.181 24.3955C176.203 25.6829 175.503 26.4215 174.826 26.8225Z" fill="white"/>
<path d="M181.492 27.7931H186.956V25.8305H181.492C181.492 25.8305 181.951 21.6097 186.956 21.5464L186.891 19.6049C186.891 19.6049 180.028 19.436 179.175 26.2103C179.175 26.2103 178.869 33.7655 186.978 34.0187V32.0561C186.978 32.035 182.104 31.9506 181.492 27.7931Z" fill="white"/>
<path d="M170.476 26.8862C170.476 22.9187 167.176 19.7109 163.088 19.7109H163.067C159.001 19.732 155.723 22.9398 155.723 26.8862C155.723 30.8115 159.001 34.0404 163.067 34.0615H163.088C167.198 34.0404 170.476 30.8326 170.476 26.8862ZM163.088 32.0566C160.116 32.0566 157.712 29.7141 157.712 26.8229C157.712 23.9317 160.116 21.5892 163.088 21.5892C166.061 21.5892 168.465 23.9317 168.465 26.8229C168.465 29.7141 166.061 32.0566 163.088 32.0566Z" fill="white"/>
<path d="M97.0582 26.7806C98.2167 25.1345 97.4517 22.8553 97.4517 22.8553C96.949 21.6523 95.9654 20.977 94.96 20.6183C93.3426 20.0485 91.594 20.2384 91.594 20.2384L91.6814 34.0191C92.818 34.0824 94.0857 33.9136 94.0857 33.9136C94.3917 33.8925 94.6977 33.8503 94.96 33.7659C97.4735 33.1539 98.02 30.8325 98.02 30.8325C98.0855 30.4315 98.1292 30.0516 98.1511 29.7351V29.2286C98.02 27.4559 97.0582 26.7806 97.0582 26.7806ZM94.9381 31.6977C94.3043 32.0354 93.6704 32.0354 93.6704 32.0354V22.391C94.2168 22.4332 94.6321 22.5809 94.9381 22.7919C95.8343 23.404 95.8124 24.5013 95.8124 24.5013C95.8998 25.24 95.419 25.8731 94.9381 26.2952C94.501 26.6961 94.0638 26.9494 94.0638 26.9494C94.4135 27.0338 94.6977 27.1604 94.9381 27.3081C96.0091 27.9835 96.2058 29.1653 96.2058 29.1653C96.3151 30.6214 95.6157 31.339 94.9381 31.6977Z" fill="white"/>
<path d="M56.7323 12.5141H80.775V5.33887H77.9992V9.41189H56.6668V8.01904H53.8691V12.4508C53.8691 12.4508 53.8691 15.7852 49.1042 14.1391C49.1042 14.1391 49.6944 16.756 53.0822 16.4394C53.0604 16.4605 55.8799 16.0807 56.7323 12.5141Z" fill="white"/>
<path d="M67.1362 15.0258C67.1362 15.9544 67.9012 16.7141 68.8848 16.7141C69.8465 16.7141 70.6334 15.9544 70.6334 15.0258C70.6334 14.0551 69.8465 13.2953 68.8848 13.2953C67.9012 13.2742 67.1362 14.0551 67.1362 15.0258Z" fill="white"/>
<path d="M74.4362 15.0043C74.4362 14.0758 73.6494 13.2949 72.6658 13.2949C71.7041 13.2949 70.9172 14.0547 70.9172 15.0043C70.9172 15.954 71.7041 16.7137 72.6658 16.7137C73.6275 16.7137 74.4362 15.954 74.4362 15.0043Z" fill="white"/>
<path d="M87.507 16.2072C87.507 16.2072 90.3047 16.0173 91.179 12.4718H119.375V9.55952H118.238C118.238 9.55952 118.631 6.58389 115.222 5.25436C115.222 5.25436 110.391 4.49463 108.555 3.65048C108.555 3.65048 107.484 3.2073 106.588 1.81445C106.588 1.81445 105.299 3.33392 106.763 5.73975C106.763 5.73975 106.829 6.77383 110.304 7.06928C110.304 7.06928 112.796 7.23811 114.216 8.08226C114.216 8.08226 115.112 8.65206 114.916 9.4329L91.0916 9.34848V7.91343H88.2939V12.8728C88.2939 12.8728 87.201 15.7851 83.5291 13.4848C83.5291 13.4848 84.1192 16.5237 87.507 16.2072Z" fill="white"/>
<path d="M110.085 15.0043C110.085 15.9329 110.85 16.7137 111.834 16.7137C112.795 16.7137 113.582 15.9329 113.582 15.0043C113.582 14.0547 112.795 13.2949 111.834 13.2949C110.85 13.2949 110.085 14.0547 110.085 15.0043Z" fill="white"/>
<path d="M122.806 11.5863C122.828 12.1139 122.872 12.4516 122.872 12.4516H127.199H183.984H186.781V9.0961C186.279 7.15456 184.486 7.00683 183.984 7.00683C183.896 7.00683 183.853 7.02794 183.853 7.02794C180.771 6.88021 180.727 9.70811 180.727 9.70811H175.613C175.984 6.39482 173.033 6.16268 173.033 6.16268H158.28C159.613 3.86238 159.526 0.401367 159.526 0.401367H157.1C157.537 4.26335 154.761 6.16268 154.761 6.16268L154.63 8.80065H171.962C172.815 9.11721 172.137 9.75032 172.137 9.75032H149.013V5.88834H146.346V9.75032H141.537V6.12048H138.893V9.89804H130.828V3.20816C129.363 3.3981 128.161 3.75686 127.177 4.22114C123.418 6.01496 122.828 9.45486 122.806 11.2909V11.5863ZM183.853 9.05389C183.896 9.05389 183.94 9.075 183.984 9.075C184.355 9.20162 184.465 9.6448 184.465 9.6448H183.984H183.503C183.656 9.0961 183.853 9.05389 183.853 9.05389ZM127.177 7.51332C127.789 6.88021 128.423 6.52145 128.423 6.52145V9.89804H127.177H125.932C125.997 8.92727 126.587 8.10423 127.177 7.51332Z" fill="white"/>
<path d="M122.609 3.3977C123.571 3.3977 124.358 2.63797 124.358 1.7094C124.358 0.73863 123.571 0 122.609 0C121.626 0 120.861 0.73863 120.861 1.7094C120.861 2.61686 121.626 3.3977 122.609 3.3977Z" fill="white"/>
<path d="M126.937 3.3977C127.921 3.3977 128.686 2.63797 128.686 1.7094C128.686 0.73863 127.921 0 126.937 0C125.975 0 125.188 0.73863 125.188 1.7094C125.188 2.61686 125.975 3.3977 126.937 3.3977Z" fill="white"/>
<path d="M144.27 3.3977C145.231 3.3977 146.018 2.65907 146.018 1.7094C146.018 0.780838 145.231 0 144.27 0C143.286 0 142.521 0.759734 142.521 1.7094C142.499 2.63797 143.286 3.3977 144.27 3.3977Z" fill="white"/>
<path d="M149.056 3.3977C150.018 3.3977 150.805 2.65907 150.805 1.7094C150.805 0.780838 150.018 0 149.056 0C148.073 0 147.286 0.759734 147.286 1.7094C147.308 2.63797 148.073 3.3977 149.056 3.3977Z" fill="white"/>
<path d="M140.139 16.7137C141.101 16.7137 141.887 15.9329 141.887 15.0043C141.887 14.0547 141.101 13.2949 140.139 13.2949C139.155 13.2949 138.368 14.0547 138.368 15.0043C138.368 15.9329 139.155 16.7137 140.139 16.7137Z" fill="white"/>
<path d="M49.6725 41.3213C49.4102 41.3213 49.2135 41.5323 49.2135 41.7645C49.2135 41.9966 49.4102 42.1865 49.6725 42.1865C49.9129 42.1865 50.1096 41.9966 50.1096 41.7645C50.1096 41.5323 49.9129 41.3213 49.6725 41.3213Z" fill="white"/>
<path d="M51.7271 41.3213C51.4866 41.3213 51.2899 41.5323 51.2899 41.7645C51.2899 41.9966 51.4866 42.1865 51.7271 42.1865C51.9893 42.1865 52.1861 41.9966 52.1861 41.7645C52.1861 41.5323 51.9893 41.3213 51.7271 41.3213Z" fill="white"/>
<path d="M53.8035 41.3213C53.563 41.3213 53.3663 41.5323 53.3663 41.7645C53.3663 41.9966 53.563 42.1865 53.8035 42.1865C54.0439 42.1865 54.2625 41.9966 54.2625 41.7645C54.2625 41.5323 54.0439 41.3213 53.8035 41.3213Z" fill="white"/>
<path d="M100.206 40.4773L99.8122 40.3718C99.6155 40.3085 99.4625 40.2663 99.375 40.2241C99.2876 40.1608 99.2439 40.1186 99.2439 40.0553C99.2439 39.9708 99.2876 39.8864 99.375 39.8442C99.4625 39.7809 99.5718 39.7598 99.7029 39.7598C99.8559 39.7598 99.9652 39.7809 100.053 39.8653C100.118 39.9286 100.162 40.0341 100.162 40.1608H100.905V40.0975C100.905 39.8442 100.796 39.6332 100.599 39.5066C100.402 39.3377 100.096 39.2744 99.7029 39.2744C99.3532 39.2744 99.069 39.3377 98.8505 39.5066C98.6319 39.6543 98.5008 39.8653 98.5008 40.1186C98.5008 40.3296 98.5663 40.4984 98.7193 40.6462C98.8723 40.7728 99.1128 40.8783 99.4406 40.9627L99.834 41.0682C99.987 41.1104 100.096 41.1737 100.162 41.216C100.227 41.2582 100.249 41.3215 100.249 41.4059C100.249 41.5114 100.206 41.5958 100.096 41.6591C99.987 41.7224 99.8778 41.7647 99.7029 41.7647C99.528 41.7647 99.3969 41.7224 99.3095 41.638C99.222 41.5747 99.1783 41.4481 99.1783 41.2793H98.4133V41.3004C98.4133 41.5958 98.5226 41.828 98.763 42.0179C98.9816 42.1867 99.2876 42.2711 99.681 42.2711C100.053 42.2711 100.359 42.1867 100.599 42.0179C100.839 41.8491 100.949 41.6169 100.949 41.3426C100.949 41.1315 100.883 40.9627 100.774 40.8361C100.686 40.6673 100.49 40.5617 100.206 40.4773Z" fill="white"/>
<path d="M97.9107 39.3377H97.4735H97.0364L96.1621 40.4773V38.1348H95.7687H95.3752V42.1656H95.7687H96.1621V40.7094L97.0801 42.1656H97.5391H97.9981L96.9271 40.5617L97.9107 39.3377Z" fill="white"/>
<path d="M108.096 39.6751L107.987 39.8228V39.3585H107.615H107.222V42.1864H107.615H108.009V40.7514C108.009 40.5192 108.074 40.3293 108.227 40.2027C108.359 40.055 108.577 40.0128 108.818 40.0128H108.839V39.2952H108.818C108.512 39.2741 108.271 39.4007 108.096 39.6751Z" fill="white"/>
<path d="M105.145 39.2744C104.686 39.2744 104.337 39.401 104.074 39.6543C103.812 39.9075 103.681 40.2874 103.681 40.7517C103.681 41.216 103.812 41.5747 104.074 41.8491C104.337 42.1023 104.686 42.2289 105.145 42.2289C105.604 42.2289 105.976 42.1023 106.238 41.8491C106.5 41.5958 106.632 41.2371 106.632 40.7517C106.632 40.2663 106.5 39.9075 106.238 39.6543C105.976 39.401 105.604 39.2744 105.145 39.2744ZM105.648 41.4903C105.517 41.6591 105.364 41.7435 105.145 41.7435C104.927 41.7435 104.752 41.6591 104.643 41.5114C104.533 41.3426 104.49 41.0893 104.49 40.7728C104.49 40.4562 104.555 40.203 104.664 40.0341C104.774 39.8653 104.949 39.7809 105.167 39.7809C105.386 39.7809 105.561 39.8653 105.67 40.0341C105.779 40.203 105.845 40.4562 105.845 40.7728C105.823 41.0682 105.779 41.3215 105.648 41.4903Z" fill="white"/>
<path d="M110.632 39.2744C110.195 39.2744 109.867 39.4221 109.626 39.6965C109.364 39.9708 109.233 40.3296 109.233 40.7728C109.233 41.2371 109.342 41.5958 109.583 41.8702C109.823 42.1234 110.151 42.25 110.588 42.25H110.61C110.981 42.25 111.287 42.1656 111.506 41.9968C111.724 41.828 111.856 41.5958 111.899 41.3004H111.112C111.112 41.4481 111.069 41.5536 110.981 41.638C110.872 41.7224 110.763 41.7647 110.61 41.7647H110.588C110.391 41.7647 110.238 41.7013 110.151 41.5536C110.063 41.427 110.02 41.2371 109.998 40.9838H110.588H111.921V40.815V40.7939C111.921 40.3085 111.812 39.9286 111.593 39.6754C111.418 39.401 111.069 39.2744 110.632 39.2744ZM110.632 40.4351H110.042C110.063 40.2663 110.107 40.1186 110.173 40.013C110.26 39.8442 110.413 39.7598 110.632 39.7598C110.85 39.7598 111.003 39.8231 111.091 39.9708C111.156 40.0552 111.2 40.203 111.2 40.414H110.632V40.4351Z" fill="white"/>
<path d="M102.632 38.5352L101.845 38.915V39.3371H101.321V39.8436H101.845V41.3842C101.845 41.6796 101.911 41.8906 102.02 42.0384C102.151 42.1861 102.37 42.2283 102.654 42.2283C102.872 42.2283 103.047 42.2072 103.222 42.1861V41.7007C103.157 41.7218 103.069 41.7218 103.004 41.7218C102.851 41.7218 102.763 41.7007 102.698 41.6163C102.632 41.5319 102.61 41.4053 102.61 41.2364V39.8225H103.2V39.316H102.61V38.5352H102.632Z" fill="white"/>
<path d="M93.2551 39.2744C92.7742 39.2744 92.4245 39.401 92.1622 39.6543C91.8999 39.9075 91.7688 40.2874 91.7688 40.7517C91.7688 41.216 91.8999 41.5747 92.1622 41.8491C92.4245 42.1023 92.7742 42.2289 93.2551 42.2289C93.7141 42.2289 94.0638 42.1023 94.3261 41.8491C94.5884 41.5958 94.7195 41.2371 94.7195 40.7517C94.7195 40.2663 94.5884 39.9075 94.3261 39.6543C94.0638 39.401 93.7141 39.2744 93.2551 39.2744ZM93.7578 41.4903C93.6485 41.6591 93.4736 41.7435 93.2551 41.7435C93.0147 41.7435 92.8398 41.6591 92.7524 41.5114C92.6431 41.3426 92.5775 41.0893 92.5775 40.7728C92.5775 40.4562 92.6431 40.203 92.7524 40.0341C92.8616 39.8653 93.0365 39.7809 93.2551 39.7809C93.4736 39.7809 93.6485 39.8653 93.7578 40.0341C93.8671 40.203 93.9326 40.4562 93.9326 40.7728C93.9326 41.0682 93.8671 41.3215 93.7578 41.4903Z" fill="white"/>
<path d="M89.8019 39.2744C89.3429 39.2744 88.9932 39.401 88.7309 39.6543C88.4687 39.9075 88.3375 40.2874 88.3375 40.7517C88.3375 41.216 88.4687 41.5747 88.7309 41.8491C88.9932 42.1023 89.3429 42.2289 89.8019 42.2289C90.2828 42.2289 90.6325 42.1023 90.8948 41.8491C91.1571 41.5958 91.2882 41.2371 91.2882 40.7517C91.2882 40.2663 91.1571 39.9075 90.8948 39.6543C90.6106 39.401 90.2609 39.2744 89.8019 39.2744ZM90.3047 41.4903C90.1954 41.6591 90.0205 41.7435 89.8019 41.7435C89.5834 41.7435 89.4085 41.6591 89.2992 41.5114C89.1899 41.3426 89.1244 41.0893 89.1244 40.7728C89.1244 40.4562 89.1899 40.203 89.2992 40.0341C89.4085 39.8653 89.5834 39.7809 89.8019 39.7809C90.0205 39.7809 90.1954 39.8653 90.3047 40.0341C90.4139 40.203 90.4795 40.4562 90.4795 40.7728C90.4795 41.0682 90.4139 41.3215 90.3047 41.4903Z" fill="white"/>
<path d="M70.6771 39.3369V40.9408C70.6771 41.194 70.6115 41.384 70.5022 41.5106C70.393 41.6583 70.24 41.7216 70.0214 41.7216C69.8684 41.7216 69.7373 41.6583 69.628 41.5106C69.5187 41.3629 69.475 41.194 69.475 40.983V39.3369H69.0815H68.6881V41.0463C68.6881 41.4473 68.7974 41.7427 68.9504 41.9327C69.1471 42.1226 69.3875 42.2281 69.7591 42.2281C70.1088 42.2281 70.3711 42.1226 70.5678 41.8905C70.6334 41.8272 70.6771 41.7638 70.699 41.7216V42.1648H71.0705H71.4202V39.3369H71.0268H70.6771Z" fill="white"/>
<path d="M68.0763 38.1348H67.2239V38.8734H68.0763V38.1348Z" fill="white"/>
<path d="M57.8473 39.2744C57.4976 39.2744 57.2134 39.3799 57.0604 39.591C57.0167 39.6543 56.9512 39.7176 56.9293 39.802V39.3377H56.5577H56.1643V42.1656H56.5577H56.9512V40.5617C56.9512 40.3085 57.0167 40.0975 57.1042 39.9497C57.2134 39.8231 57.3664 39.7598 57.585 39.7598C57.738 39.7598 57.8692 39.8231 57.9784 39.9286C58.0877 40.0552 58.1314 40.1819 58.1314 40.3929V42.1656H58.5249H58.9183V40.3929C58.9183 40.013 58.8309 39.7387 58.656 39.5488C58.4593 39.3588 58.197 39.2744 57.8473 39.2744Z" fill="white"/>
<path d="M60.9728 39.2744C60.492 39.2744 60.1423 39.401 59.88 39.6543C59.6177 39.9075 59.4866 40.2874 59.4866 40.7517C59.4866 41.216 59.6177 41.5747 59.88 41.8491C60.1423 42.1023 60.492 42.2289 60.9728 42.2289C61.4318 42.2289 61.7816 42.1023 62.0438 41.8491C62.3061 41.5958 62.4373 41.2371 62.4373 40.7517C62.4373 40.2663 62.3061 39.9075 62.0438 39.6543C61.7816 39.401 61.4318 39.2744 60.9728 39.2744ZM61.4756 41.4903C61.3663 41.6591 61.1914 41.7435 60.9728 41.7435C60.7324 41.7435 60.5576 41.6591 60.4701 41.5114C60.3609 41.3426 60.2953 41.0893 60.2953 40.7728C60.2953 40.4562 60.3609 40.203 60.4701 40.0341C60.5794 39.8653 60.7543 39.7809 60.9728 39.7809C61.1914 39.7809 61.3663 39.8653 61.4756 40.0341C61.5848 40.203 61.6504 40.4562 61.6504 40.7728C61.6504 41.0682 61.5848 41.3215 61.4756 41.4903Z" fill="white"/>
<path d="M67.2455 39.3369V42.4181C67.2455 42.5236 67.2237 42.608 67.1362 42.6713C67.0707 42.7346 66.9614 42.7768 66.8302 42.7768H66.6991V43.2622H67.1362C67.4422 43.2622 67.6827 43.1989 67.8357 43.0723C67.9887 42.9457 68.0542 42.7135 68.0542 42.4181V39.3369H67.6608H67.2455Z" fill="white"/>
<path d="M64.1419 38.5352L63.355 38.915V39.3371H62.8304V39.8436H63.355V41.3842C63.355 41.6796 63.4206 41.8906 63.5299 42.0384C63.661 42.1861 63.8796 42.2283 64.1637 42.2283C64.3823 42.2283 64.5572 42.2072 64.732 42.1861V41.7007C64.6664 41.7218 64.579 41.7218 64.5134 41.7218C64.3604 41.7218 64.273 41.7007 64.2074 41.6163C64.1419 41.5319 64.12 41.4053 64.12 41.2364V39.8225H64.7101V39.316H64.12V38.5352H64.1419Z" fill="white"/>
<path d="M81.9555 41.3426V40.3296C81.9555 39.9708 81.8462 39.7176 81.6276 39.5277C81.4091 39.3377 81.0812 39.2744 80.6441 39.2744H80.6222C80.2288 39.2744 79.9446 39.3377 79.7479 39.4855C79.5512 39.6332 79.4419 39.8653 79.4201 40.1397H80.2069C80.2069 39.9919 80.2506 39.9075 80.3162 39.8442C80.3818 39.7809 80.4692 39.7598 80.6222 39.7598H80.6441C80.8408 39.7598 80.9501 39.802 81.0375 39.8653C81.1249 39.9286 81.1686 40.0553 81.1686 40.2241V40.3507H80.7971H80.6222C80.2069 40.3718 79.9009 40.4562 79.6824 40.6039C79.4419 40.7728 79.3108 41.026 79.3108 41.3426C79.3108 41.6169 79.3982 41.828 79.5731 41.9968C79.7479 42.1445 80.0102 42.2078 80.3162 42.2078C80.4255 42.2078 80.5129 42.2078 80.6222 42.1867C80.8189 42.1445 80.9938 42.039 81.1249 41.9124L81.2124 41.8069L81.2779 42.1445H82.0211C81.9992 42.0812 81.9773 41.9968 81.9555 41.8491C81.9555 41.7435 81.9555 41.5536 81.9555 41.3426ZM81.1686 41.026C81.1468 41.2793 81.1031 41.4481 80.9938 41.5536C80.9064 41.6591 80.7752 41.7224 80.6222 41.7224H80.5566C80.4036 41.7224 80.2944 41.6802 80.2069 41.6169C80.1195 41.5536 80.0758 41.4481 80.0758 41.3215C80.0758 41.1315 80.1632 41.026 80.2944 40.9205C80.3818 40.8572 80.4692 40.815 80.6004 40.815C80.7096 40.7939 80.7971 40.7939 80.9282 40.7939H81.1468V41.026H81.1686Z" fill="white"/>
<path d="M87.4195 40.2451C87.2883 40.1396 87.0916 40.0974 86.8731 40.0341C87.0261 39.9919 87.1791 39.9286 87.3102 39.8653C87.5725 39.6964 87.7255 39.4432 87.7255 39.1266C87.7255 38.8101 87.5943 38.5568 87.3758 38.388C87.1353 38.2192 86.7856 38.1348 86.3266 38.1348H86.2392H85.1682H84.7311V42.1656H85.1682H86.2392H86.3048C86.8293 42.1656 87.2228 42.0601 87.5069 41.8701C87.7692 41.7013 87.9222 41.4269 87.9222 41.0682C87.9003 40.6883 87.7473 40.414 87.4195 40.2451ZM85.5835 38.7468H86.0644H86.2174C86.3922 38.7679 86.5671 38.8101 86.6545 38.8945C86.8075 38.9789 86.8512 39.1055 86.8512 39.2744C86.8512 39.4432 86.7856 39.5698 86.6326 39.6331C86.5233 39.6964 86.3922 39.7175 86.2174 39.7386C86.1081 39.7386 85.9988 39.7598 85.8895 39.7598H85.5835V38.7468ZM86.8075 41.3847C86.6545 41.4903 86.4796 41.5325 86.2174 41.5325H86.0862H85.5835V40.3718H86.2174H86.2829C86.5015 40.3718 86.6982 40.4351 86.8293 40.5195C86.9823 40.625 87.0479 40.7727 87.0479 40.9416C87.0479 41.1315 86.9824 41.2792 86.8075 41.3847Z" fill="white"/>
<path d="M76.2725 38.5352L75.4856 38.915V39.3371H74.9611V39.8436H75.4856V41.3842C75.4856 41.6796 75.5512 41.8906 75.6605 42.0384C75.7916 42.1861 76.0102 42.2283 76.2943 42.2283C76.5129 42.2283 76.7096 42.2072 76.8626 42.1861V41.7007C76.7971 41.7218 76.7315 41.7218 76.6659 41.7218C76.5129 41.7218 76.4036 41.7007 76.3599 41.6163C76.2943 41.5319 76.2725 41.4053 76.2725 41.2364V39.8225H76.8626V39.316H76.2725V38.5352Z" fill="white"/>
<path d="M73.8245 40.4773L73.4311 40.3718C73.2344 40.3085 73.0814 40.2663 72.9939 40.2241C72.9065 40.1608 72.8628 40.1186 72.8628 40.0553C72.8628 39.9708 72.9065 39.8864 72.9939 39.8442C73.0814 39.7809 73.1906 39.7598 73.3218 39.7598C73.4748 39.7598 73.5841 39.7809 73.6715 39.8653C73.7371 39.9286 73.7808 40.0341 73.7808 40.1608H74.5239V40.0975C74.5239 39.8442 74.4146 39.6332 74.2179 39.5066C74.0212 39.3377 73.7152 39.2744 73.3218 39.2744C72.9721 39.2744 72.6879 39.3377 72.4694 39.5066C72.2508 39.6543 72.1196 39.8653 72.1196 40.1186C72.1196 40.3296 72.1852 40.4984 72.3382 40.6462C72.4912 40.7728 72.7316 40.8783 73.0595 40.9627L73.4529 41.0682C73.6059 41.1104 73.7152 41.1737 73.7808 41.216C73.8463 41.2582 73.8682 41.3215 73.8682 41.4059C73.8682 41.5114 73.8245 41.5958 73.7152 41.6591C73.6059 41.7224 73.4966 41.7647 73.3218 41.7647C73.1469 41.7647 73.0376 41.7224 72.9284 41.638C72.8409 41.5747 72.7972 41.4481 72.7972 41.2793H72.0759V41.3004C72.0759 41.5958 72.1852 41.828 72.4256 42.0179C72.6442 42.1867 72.9502 42.2711 73.3436 42.2711C73.7152 42.2711 74.0212 42.1867 74.2616 42.0179C74.5021 41.8491 74.6113 41.6169 74.6113 41.3426C74.6113 41.1315 74.5458 40.9627 74.4365 40.8361C74.3272 40.6673 74.1086 40.5617 73.8245 40.4773Z" fill="white"/>
</g>
<defs>
<clipPath id="clip0_6073_32781">
<rect width="187" height="44" fill="white"/>
</clipPath>
</defs>
</svg>
