<svg width="162" height="119" viewBox="0 0 162 119" fill="none" xmlns="http://www.w3.org/2000/svg">
<path opacity="0.1" d="M125.18 47.1443C126.981 47.1443 128.709 47.4128 130.429 47.6576C129.872 45.8256 129.299 43.9619 128.378 42.2878C127.457 39.8555 126.02 37.7471 124.59 35.6228C123.395 33.3248 121.287 31.7691 119.737 29.8028C118.113 27.8918 115.901 26.6204 114.148 25.0331C112.428 23.3747 110.175 22.5456 108.382 21.3768C106.508 20.3266 104.877 19.1657 103.132 18.6129L98.7795 16.8598L94.9515 15.3041L98.8684 0L103.69 1.13715C105.232 1.5162 107.114 1.95842 109.254 2.48751C111.443 2.88236 113.777 3.96423 116.377 4.95134C118.945 6.0727 121.917 6.8308 124.679 8.63128C127.457 10.3528 130.663 11.79 133.49 14.0959C136.228 16.4729 139.531 18.534 141.97 21.5585C144.635 24.3855 147.268 27.3548 149.311 30.7346C151.677 33.9566 153.284 37.4944 154.98 40.9927C156.515 44.491 157.75 48.0683 158.76 51.5429C160.674 58.5079 161.53 65.1255 161.861 70.7876C162.135 76.4575 161.974 81.172 161.635 84.5834C161.514 86.1944 161.287 87.758 161.126 88.8398L160.924 90.1665L160.714 90.1191C159.278 96.6801 155.971 102.709 151.177 107.509C146.382 112.31 140.296 115.684 133.622 117.244C126.948 118.803 119.959 118.482 113.464 116.32C106.968 114.157 101.231 110.24 96.9172 105.023C92.603 99.8052 89.8875 93.4999 89.085 86.8364C88.2825 80.1728 89.4257 73.4232 92.3823 67.3684C95.3389 61.3136 99.9882 56.201 105.792 52.622C111.596 49.043 118.318 47.1439 125.18 47.1443ZM36.3443 47.1443C38.1452 47.1443 39.8735 47.4128 41.5937 47.6576C41.0364 45.8256 40.463 43.9619 39.5424 42.2878C38.6217 39.8555 37.1842 37.7471 35.7547 35.6228C34.5595 33.3248 32.4517 31.7691 30.9011 29.8028C29.2778 27.8918 27.065 26.6204 25.3125 25.0331C23.5923 23.3747 21.3391 22.5456 19.5463 21.3768C17.6727 20.3266 16.0413 19.1657 14.2969 18.6129L9.94395 16.8598L6.11595 15.3041L10.0328 0L14.8542 1.13715C16.3967 1.5162 18.2783 1.95842 20.4185 2.48751C22.6071 2.88236 24.941 3.96423 27.5415 4.95134C30.1015 6.08059 33.0816 6.83079 35.8436 8.63918C38.6217 10.3607 41.8279 11.7979 44.6544 14.1038C47.3922 16.4808 50.6953 18.5419 53.1342 21.5585C55.7993 24.3855 58.432 27.3548 60.4752 30.7346C62.8415 33.9566 64.4486 37.4944 66.1446 40.9927C67.679 44.491 68.9146 48.0683 69.9241 51.5429C71.8381 58.5079 72.6942 65.1255 73.0253 70.7876C73.2999 76.4575 73.1384 81.172 72.7992 84.5834C72.678 86.1944 72.4519 87.758 72.2904 88.8398L72.0885 90.1665L71.8785 90.1191C70.4421 96.6801 67.1355 102.709 62.3411 107.509C57.5467 112.31 51.4605 115.684 44.7866 117.244C38.1126 118.803 31.1236 118.482 24.628 116.32C18.1325 114.157 12.3958 110.24 8.08159 105.023C3.76738 99.8052 1.05196 93.4999 0.249435 86.8364C-0.553085 80.1728 0.590088 73.4232 3.54672 67.3684C6.50336 61.3136 11.1526 56.201 16.9567 52.622C22.7608 49.043 29.4825 47.1439 36.3443 47.1443Z" fill="#A33670"/>
</svg>
