<svg width="20" height="21" viewBox="0 0 20 21" fill="none" xmlns="http://www.w3.org/2000/svg">
<g clip-path="url(#clip0_5503_35773)">
<path d="M10 20.1851C9.52063 20.1851 9.07605 19.8801 8.67867 19.2784C8.24309 18.6189 7.31117 18.3714 6.60148 18.7265C5.9816 19.0367 5.44941 19.0691 5.01949 18.823C4.58969 18.577 4.35195 18.1037 4.31289 17.4164C4.26816 16.6293 3.58602 15.9528 2.79223 15.9085C2.09906 15.8698 1.62176 15.6341 1.37355 15.2079C1.12539 14.7816 1.15812 14.2539 1.47094 13.6392C1.8291 12.9354 1.57941 12.0114 0.914297 11.5795C0.307617 11.1854 0 10.7446 0 10.2693C0 9.79397 0.307617 9.35314 0.914375 8.9591C1.57941 8.52719 1.8291 7.60316 1.47094 6.89933C1.1582 6.28478 1.12543 5.75708 1.37355 5.33082C1.6218 4.90451 2.09914 4.66874 2.7923 4.63005C3.58602 4.5857 4.26816 3.90933 4.31289 3.12227C4.35191 2.43494 4.58965 1.96166 5.01953 1.71554C5.44938 1.46939 5.98164 1.50185 6.60152 1.81207C7.31129 2.16721 8.24312 1.91963 8.67883 1.26011C9.07613 0.658542 9.52066 0.353516 10 0.353516C10.4793 0.353516 10.9239 0.658542 11.3212 1.26007C11.7569 1.91963 12.6888 2.16718 13.3985 1.81203C14.0184 1.50185 14.5506 1.46939 14.9805 1.7155C15.4104 1.96162 15.6481 2.43494 15.6871 3.12227C15.7319 3.90929 16.414 4.5857 17.2077 4.63005C17.9009 4.66874 18.3782 4.90448 18.6264 5.33074C18.8746 5.75704 18.8418 6.28475 18.5291 6.89933C18.1709 7.60316 18.4205 8.52719 19.0856 8.9591C19.6924 9.35314 20 9.79397 20 10.2693C20 10.7446 19.6924 11.1854 19.0857 11.5794C18.4206 12.0114 18.1709 12.9354 18.5291 13.6392C18.8418 14.2538 18.8746 14.7816 18.6264 15.2078C18.3782 15.6341 17.9009 15.8698 17.2078 15.9085C16.414 15.9529 15.7318 16.6293 15.6871 17.4164C15.648 18.1037 15.4103 18.577 14.9804 18.8231C14.5506 19.0691 14.0183 19.0367 13.3985 18.7265C12.6887 18.3714 11.7568 18.619 11.3213 19.2785C10.9239 19.8801 10.4794 20.1851 10 20.1851ZM9.65902 18.6418C9.83934 18.9148 9.95996 18.9964 10 19.0178C10.0401 18.9964 10.1607 18.9148 10.341 18.6418C11.1056 17.4842 12.6806 17.0658 13.9265 17.6891C14.2295 17.8408 14.3748 17.828 14.3945 17.8167C14.4143 17.8054 14.498 17.6871 14.5171 17.351C14.5956 15.9694 15.7485 14.8262 17.1419 14.7484C17.4809 14.7294 17.6002 14.6464 17.6116 14.6268C17.623 14.6073 17.6358 14.4633 17.4829 14.1628C16.8542 12.9273 17.2762 11.3656 18.4437 10.6074C18.7189 10.4286 18.8013 10.309 18.8229 10.2693C18.8013 10.2296 18.7189 10.11 18.4436 9.9312C17.2762 9.17299 16.8542 7.61129 17.4829 6.37581C17.6359 6.07531 17.623 5.9313 17.6116 5.91174C17.6003 5.89226 17.4809 5.80914 17.1419 5.7902C15.7486 5.71238 14.5957 4.5692 14.5172 3.18761C14.4981 2.85148 14.4143 2.73307 14.3946 2.7218C14.3749 2.71049 14.2296 2.69775 13.9266 2.84943C12.6764 3.47498 11.1031 3.05049 10.341 1.89674C10.1607 1.62382 10.0402 1.54217 10.0001 1.52075C9.96 1.54217 9.83945 1.62378 9.65918 1.8967C8.89449 3.05433 7.31957 3.47284 6.07359 2.84939C5.77043 2.69767 5.62523 2.71049 5.60559 2.72176C5.58586 2.73307 5.50203 2.85144 5.48293 3.18757C5.40445 4.56916 4.25156 5.71238 2.85824 5.79016C2.51926 5.8091 2.39984 5.89222 2.38848 5.91178C2.37715 5.93126 2.36426 6.07527 2.51719 6.37577C3.14594 7.61125 2.72391 9.17295 1.55648 9.93116C1.28113 10.11 1.19883 10.2296 1.17727 10.2693C1.19883 10.309 1.28113 10.4285 1.55645 10.6074C2.72391 11.3655 3.14594 12.9272 2.51723 14.1627C2.36426 14.4633 2.37715 14.6073 2.38852 14.6268C2.39988 14.6464 2.51922 14.7294 2.85816 14.7484C4.25152 14.8262 5.40449 15.9694 5.48297 17.351C5.50207 17.6871 5.58578 17.8054 5.60551 17.8167C5.62531 17.828 5.77051 17.8408 6.07359 17.6891C7.32367 17.0636 8.89691 17.488 9.65902 18.6418Z" fill="white"/>
<path d="M7.65625 8.52606C6.68699 8.52606 5.89844 7.74414 5.89844 6.78305C5.89844 5.82195 6.68699 5.04004 7.65625 5.04004C8.62551 5.04004 9.41406 5.82195 9.41406 6.78305C9.41406 7.74414 8.62551 8.52606 7.65625 8.52606ZM7.65625 6.20205C7.33316 6.20205 7.07031 6.46268 7.07031 6.78305C7.07031 7.10341 7.33316 7.36405 7.65625 7.36405C7.97934 7.36405 8.24219 7.10341 8.24219 6.78305C8.24219 6.46268 7.97934 6.20205 7.65625 6.20205Z" fill="white"/>
<path d="M12.3438 15.4987C11.3745 15.4987 10.5859 14.7168 10.5859 13.7557C10.5859 12.7946 11.3745 12.0127 12.3438 12.0127C13.313 12.0127 14.1016 12.7946 14.1016 13.7557C14.1016 14.7168 13.313 15.4987 12.3438 15.4987ZM12.3438 13.1747C12.0207 13.1747 11.7578 13.4353 11.7578 13.7557C11.7578 14.0761 12.0207 14.3367 12.3438 14.3367C12.6668 14.3367 12.9297 14.0761 12.9297 13.7557C12.9297 13.4353 12.6668 13.1747 12.3438 13.1747Z" fill="white"/>
<path d="M6.01562 14.5684L13.0469 5.27231L13.9844 5.96951L6.95313 15.2656L6.01562 14.5684Z" fill="white"/>
</g>
<defs>
<clipPath id="clip0_5503_35773">
<rect width="20" height="19.8316" fill="white" transform="translate(0 0.353516)"/>
</clipPath>
</defs>
</svg>
